<svg width="24" height="34" viewBox="0 0 24 34" fill="none" xmlns="http://www.w3.org/2000/svg">
<path d="M12.112 7.45117C9.69708 7.45117 7.73145 9.4015 7.73145 11.7976C7.73145 14.1938 9.69708 16.1441 12.112 16.1441C14.527 16.1441 16.4926 14.1938 16.4926 11.7976C16.4926 9.4015 14.527 7.45117 12.112 7.45117ZM12.112 14.9023C10.3867 14.9023 8.98304 13.5095 8.98304 11.7976C8.98304 10.0858 10.3867 8.69302 12.112 8.69302C13.8374 8.69302 15.241 10.0858 15.241 11.7976C15.241 13.5095 13.8374 14.9023 12.112 14.9023Z" fill="#F5BA21"/>
<path d="M20.487 3.48774C18.2204 1.23875 15.2066 0 12.0012 0C8.79525 0 5.78203 1.23875 3.51539 3.48774C-0.679337 7.64918 -1.20063 15.479 2.38645 20.2229L12.0012 34L21.6016 20.2422C25.2031 15.479 24.6818 7.64918 20.487 3.48774ZM20.5865 19.5163L12.0012 31.8181L3.40212 19.4971C0.148595 15.1928 0.614814 8.1217 4.40089 4.36573C6.43098 2.35144 9.13005 1.24185 12.0012 1.24185C14.8724 1.24185 17.5714 2.35144 19.6022 4.36573C23.3882 8.1217 23.8545 15.1928 20.5865 19.5163Z" fill="#F5BA21"/>
</svg>
