<svg width="32" height="21" viewBox="0 0 32 21" fill="none" xmlns="http://www.w3.org/2000/svg">
<path d="M30.6816 0H1.31838C0.59025 0 0 0.602201 0 1.34507V19.6549C0 20.3978 0.59025 21 1.31838 21H30.6816C31.4097 21 32 20.3978 32 19.6549V1.34507C32 0.602201 31.4097 0 30.6816 0ZM1.31838 1.05634H30.6816C30.8055 1.05695 30.9146 1.1397 30.9508 1.26056L16 10.7887L1.04918 1.26056C1.08542 1.1397 1.19448 1.05695 1.31838 1.05634ZM1.03538 2.46479L11.7895 9.3169L1.03538 18.0211V2.46479ZM30.9646 19.6479C30.9646 19.8074 30.8379 19.9366 30.6816 19.9366H1.31838C1.16212 19.9366 1.03538 19.8073 1.03538 19.6479V19.3662L12.7213 9.94366L15.7239 11.8592C15.8926 11.9677 16.1074 11.9677 16.2761 11.8592L19.2787 9.94366L30.9646 19.3662V19.6479ZM30.9646 18.0211L20.1829 9.34507L30.9646 2.52817V18.0211Z" fill="#F5BA21"/>
</svg>
