<svg width="32" height="32" viewBox="0 0 32 32" fill="none" xmlns="http://www.w3.org/2000/svg">
<path d="M22.7182 0H9.28302C7.98804 0 6.93359 1.0544 6.93359 2.34933V29.6501C6.93359 30.9456 7.98804 32 9.28302 32H22.7177C24.0132 32 25.0677 30.9456 25.0677 29.6507V2.34933C25.0677 1.0544 24.0132 0 22.7182 0ZM8.0003 4.26667H24.001V24.5333H8.0003V4.26667ZM9.28302 1.06667H22.7177C23.4255 1.06667 24.001 1.64213 24.001 2.34933V3.2H8.0003V2.34933C8.0003 1.64213 8.57579 1.06667 9.28302 1.06667ZM22.7182 30.9333H9.28302C8.57579 30.9333 8.0003 30.3579 8.0003 29.6507V25.6H24.001V29.6507C24.001 30.3579 23.4255 30.9333 22.7182 30.9333Z" fill="#F5BA21"/>
<path d="M16.0006 26.1333C14.824 26.1333 13.8672 27.0901 13.8672 28.2666C13.8672 29.4432 14.824 30.4 16.0006 30.4C17.1772 30.4 18.134 29.4432 18.134 28.2666C18.134 27.0901 17.1772 26.1333 16.0006 26.1333ZM16.0006 29.3333C15.4123 29.3333 14.9339 28.8549 14.9339 28.2666C14.9339 27.6784 15.4123 27.2 16.0006 27.2C16.5889 27.2 17.0673 27.6784 17.0673 28.2666C17.0673 28.8549 16.5889 29.3333 16.0006 29.3333Z" fill="#F5BA21"/>
<path d="M13.8664 2.6667H15.9998C16.2947 2.6667 16.5331 2.4283 16.5331 2.13337C16.5331 1.83844 16.2947 1.60004 15.9998 1.60004H13.8664C13.5714 1.60004 13.333 1.83844 13.333 2.13337C13.333 2.4283 13.5714 2.6667 13.8664 2.6667Z" fill="#F5BA21"/>
<path d="M17.5998 2.6667H18.1331C18.4281 2.6667 18.6665 2.4283 18.6665 2.13337C18.6665 1.83844 18.4281 1.60004 18.1331 1.60004H17.5998C17.3048 1.60004 17.0664 1.83844 17.0664 2.13337C17.0664 2.4283 17.3048 2.6667 17.5998 2.6667Z" fill="#F5BA21"/>
<path d="M30.1928 2.43686C29.9843 2.22832 29.6472 2.22832 29.4386 2.43686C29.2301 2.64539 29.2301 2.98246 29.4386 3.19099C31.4312 5.18352 31.4312 8.42566 29.4386 10.4187C29.2301 10.6273 29.2301 10.9643 29.4386 11.1729C29.5426 11.2769 29.6792 11.3291 29.8157 11.3291C29.9523 11.3291 30.0888 11.2769 30.1928 11.1729C32.6014 8.76486 32.6014 4.84539 30.1928 2.43686Z" fill="#F5BA21"/>
<path d="M27.9487 3.65072C27.7401 3.44219 27.403 3.44219 27.1945 3.65072C26.986 3.85926 26.986 4.19632 27.1945 4.40486C27.8543 5.06459 28.2175 5.94352 28.2175 6.87899C28.2175 7.81446 27.8543 8.69286 27.1945 9.35259C26.986 9.56112 26.986 9.89819 27.1945 10.1067C27.2985 10.2107 27.435 10.263 27.5716 10.263C27.7081 10.263 27.8447 10.2107 27.9487 10.1067C28.81 9.24592 29.2842 8.09926 29.2842 6.87899C29.2842 5.65872 28.8106 4.51152 27.9487 3.65072Z" fill="#F5BA21"/>
<path d="M2.56064 3.19099C2.76918 2.98246 2.76918 2.64539 2.56064 2.43686C2.3521 2.22832 2.01501 2.22832 1.80647 2.43686C-0.602158 4.84539 -0.602158 8.76432 1.80647 11.1729C1.91048 11.2769 2.04702 11.3291 2.18356 11.3291C2.32009 11.3291 2.45663 11.2769 2.56064 11.1729C2.76918 10.9643 2.76918 10.6273 2.56064 10.4187C0.567489 8.42619 0.567489 5.18406 2.56064 3.19099Z" fill="#F5BA21"/>
<path d="M4.8055 3.50351C4.59696 3.29497 4.25988 3.29497 4.05134 3.50351C3.18997 4.36431 2.71582 5.51097 2.71582 6.73124C2.71582 7.95151 3.18997 9.09817 4.05134 9.95951C4.15535 10.0635 4.29188 10.1158 4.42842 10.1158C4.56496 10.1158 4.7015 10.0635 4.8055 9.95951C5.01405 9.75097 5.01405 9.41391 4.8055 9.20537C4.14574 8.54564 3.78253 7.66671 3.78253 6.73124C3.78253 5.79577 4.14521 4.91737 4.8055 4.25764C5.01351 4.04964 5.01351 3.71204 4.8055 3.50351Z" fill="#F5BA21"/>
</svg>
